<svg id="Capa_2" data-name="Capa 2" xmlns="http://www.w3.org/2000/svg" viewBox="0 0 547.78 506.95"><defs><style>.cls-1{fill:#fff;}.cls-2{fill:none;}.cls-2,.cls-3{stroke:#1d1d1b;stroke-miterlimit:10;stroke-width:3px;}.cls-3{fill:#1d1d1b;}</style></defs><path class="cls-1" d="M1061.66,125.53h89.08s9-53.89-44.54-54C1048.15,71.43,1061.66,125.53,1061.66,125.53Z" transform="translate(-603.53 -60.3)"/><path class="cls-1" d="M943.55,506.52s1.49,60.31,46,60.31-349,.43-349,.43-52.64-12.15-32.4-60.74Z" transform="translate(-603.53 -60.3)"/><path class="cls-1" d="M1041.41,536.89s-37.29,37.27-69.49,9.1c-28.37-24.82.66-67.81.66-67.81H701.29V130s0-68.83,52.64-68.83,335-.43,335-.43-54.07-14.64-47.51,134.05C1046.78,316.37,1041.41,536.89,1041.41,536.89Z" transform="translate(-603.53 -60.3)"/><path class="cls-2" d="M778.22,186.65h0Z" transform="translate(-603.53 -60.3)"/><path class="cls-3" d="M778.22,364.81h0Z" transform="translate(-603.53 -60.3)"/><path class="cls-3" d="M778.22,305.76h0Z" transform="translate(-603.53 -60.3)"/><path class="cls-3" d="M778.22,246.2h0Z" transform="translate(-603.53 -60.3)"/></svg>